<?xml version="1.0" encoding="UTF-8" standalone="no"?><!-- Generator: Gravit.io --><svg xmlns="http://www.w3.org/2000/svg" xmlns:xlink="http://www.w3.org/1999/xlink" style="isolation:isolate" viewBox="0 0 100 100" width="100pt" height="100pt"><defs><clipPath id="_clipPath_2JH5LHp14Kn8CVZO3kLvcR6c3e80KzYy"><rect width="100" height="100"/></clipPath></defs><g clip-path="url(#_clipPath_2JH5LHp14Kn8CVZO3kLvcR6c3e80KzYy)"><g><g><path d=" M 56.5 28.5 L 16.5 28.5 L 16.5 88.5 L 76.5 88.5 L 76.5 48.5" fill="none" vector-effect="non-scaling-stroke" stroke-width="10" stroke="rgb(230,230,230)" stroke-linejoin="round" stroke-linecap="round" stroke-miterlimit="3"/><path d=" M 46.5 58.5 L 83.5 21.5 L 70.5 22.5 L 82.5 34.5 L 83.5 21.5" fill="none" vector-effect="non-scaling-stroke" stroke-width="10" stroke="rgb(230,230,230)" stroke-linejoin="round" stroke-linecap="round" stroke-miterlimit="3"/></g><rect x="51.5" y="18.5" width="10" height="10" transform="matrix(1,0,0,1,0,0)" fill="rgb(230,230,230)"/><rect x="65.5" y="12.5" width="10" height="10" transform="matrix(1,0,0,1,0,0)" fill="rgb(230,230,230)"/><rect x="41.5" y="48.5" width="10" height="10" transform="matrix(1,0,0,1,0,0)" fill="rgb(230,230,230)"/><rect x="78.5" y="11.5" width="10" height="10" transform="matrix(1,0,0,1,0,0)" fill="rgb(230,230,230)"/><rect x="11.5" y="51.5" width="10" height="10" transform="matrix(1,0,0,1,0,0)" fill="rgb(230,230,230)"/><g><path d=" M 56.5 18.5 L 16.5 18.5 L 16.5 78.5 L 76.5 78.5 L 76.5 38.5" fill="none" vector-effect="non-scaling-stroke" stroke-width="10" stroke="rgb(255,255,255)" stroke-linejoin="round" stroke-linecap="round" stroke-miterlimit="3"/><path d=" M 46.5 48.5 L 83.5 11.5 L 70.5 12.5 L 82.5 24.5 L 83.5 11.5" fill="none" vector-effect="non-scaling-stroke" stroke-width="10" stroke="rgb(255,255,255)" stroke-linejoin="round" stroke-linecap="round" stroke-miterlimit="3"/></g></g></g></svg>