<?xml version="1.0" encoding="UTF-8" standalone="no"?><!-- Generator: Gravit.io --><svg xmlns="http://www.w3.org/2000/svg" xmlns:xlink="http://www.w3.org/1999/xlink" style="isolation:isolate" viewBox="0 0 100 100" width="100pt" height="100pt"><defs><clipPath id="_clipPath_LrrifBCBRayyQuYlei4o7PfbNltkfw1R"><rect width="100" height="100"/></clipPath></defs><g clip-path="url(#_clipPath_LrrifBCBRayyQuYlei4o7PfbNltkfw1R)"><g><path d="M 35 10 L 65 10 C 67.76 10 70 12.24 70 15 L 70 15 C 70 17.76 67.76 20 65 20 L 35 20 C 32.24 20 30 17.76 30 15 L 30 15 C 30 12.24 32.24 10 35 10 Z" style="stroke:none;fill:#000000;stroke-miterlimit:10;"/><path d="M 35 80 L 65 80 C 67.76 80 70 82.24 70 85 L 70 85 C 70 87.76 67.76 90 65 90 L 35 90 C 32.24 90 30 87.76 30 85 L 30 85 C 30 82.24 32.24 80 35 80 Z" style="stroke:none;fill:#000000;stroke-miterlimit:10;"/><path d=" M 40 15 L 40 35 L 20 85 L 80 85 L 60 35 L 60 15" fill="none" vector-effect="non-scaling-stroke" stroke-width="10" stroke="rgb(0,0,0)" stroke-linejoin="round" stroke-linecap="round" stroke-miterlimit="3"/></g></g></svg>